<?xml version="1.0" encoding="UTF-8"?>
<svg viewBox="0 0 154.86 129.39" xmlns="http://www.w3.org/2000/svg">
 <g transform="rotate(10.023 80.932 65.487)">
  <g stroke="#000" stroke-dashoffset="3.003" stroke-linecap="round" stroke-linejoin="round" stroke-width="2">
   <g fill="none">
    <path d="m62.731 28.717l10.831 25.88 13.839-30.695"/>
    <path d="m60.926 29.319l-19.05 26.493 4.0078-24.687"/>
    <path d="m88.003 25.106l24.015 22.269-4.792-25.074"/>
   </g>
   <g fill="#fff">
    <path d="m23.777 56.949c-1.2896-2.6852 59.414 52.171 59.414 52.171l-25.17-52.954-34.244 0.7831z"/>
    <path d="m83.511 108.76l10.327-56.459-37.803 4.1204 27.476 52.339z"/>
    <path d="m23.438 56.515l22.719-26.982 18.01-3.3478-7.8426 29.859-32.886 0.4705z"/>
    <path d="m87.163 22.467l19.546-0.6128 21.2 20.743-34.443 9.411-6.3023-29.541z"/>
    <path d="m63.608 26.328l23.427-3.8446 6.8036 29.814-37.472 4.0784 7.2419-30.048z"/>
    <path d="m83.511 108.76l44.729-66.201-34.402 9.742-10.327 56.459z"/>
   </g>
  </g>
  <path d="m118.79 70.958l20.589 8.6099" fill="#fff"/>
  <g fill="none" stroke="#000" stroke-dashoffset="3.003" stroke-linecap="round" stroke-linejoin="round">
   <path d="m63.856 26.186l9.706 28.412 13.839-30.695"/>
   <path d="m62.894 27.069l-24.597 28.743 7.5864-24.687"/>
   <path d="m87.44 22.293l24.578 25.082-4.792-25.074"/>
   <path d="m111.8 47.274l-27.25 60.057"/>
   <path d="m73.866 54.268l9.8921 53.062-1.9198-1.3097"/>
   <path d="m38.828 56.422l43.456 51.005"/>
  </g>
 </g>
</svg>
